<svg xmlns="http://www.w3.org/2000/svg" xmlns:xlink="http://www.w3.org/1999/xlink" xml:space="preserve" width="34mm" height="34mm" version="1.1" style="shape-rendering:geometricPrecision; text-rendering:geometricPrecision; image-rendering:optimizeQuality; fill-rule:evenodd; clip-rule:evenodd" viewBox="0 0 3400000 3400000" ><defs id="svgEditorDefs"><path id="svgEditorClosePathDefs" style="stroke:black;stroke-width:1px;fill:rosybrown;"/></defs><rect id="svgEditorBackground" x="0" y="0" width="3400000" height="3400000" style="fill: none; stroke: none;"/>
 <defs>
  <style type="text/css">
   <![CDATA[
    .str0 {stroke:#78B23F;stroke-width:7620;stroke-miterlimit:22.9256}
    .fil0 {fill:#78B23F}
   ]]>
  </style>
 </defs>
 <g id="Слой_x0020_1">
  <metadata id="CorelCorpID_0Corel-Layer"/>
  <g id="_2540777611776">
   
   
   
   
   
   
   
  </g>
 </g>
<line id="e13_line" x1="1374167" y1="1097917" x2="1374167" y2="1211250" style="stroke:black;fill:none;stroke-width:1px;"/><path d="M609167.125,956250c10828,70380,2748,110840,28333,184167c258061,-272005,273043,-310447,517083,-587917" style="fill:none;stroke:black;stroke-width:1px;" id="e16_path"/><polyline style="stroke:lightgray;fill:lightgray;stroke-width:1px;" id="e39_polyline" points="1.09692e+6 1.23357e+6 1.17838e+6 1.25837e+6 1.60338e+6 1.26014e+6 1.65828e+6 1.26811e+6 1.69458e+6 1.28493e+6 1.66005e+6 1.29909e+6 1.69494e+6 1.29920e+6 1.68910e+6 1.31260e+6 1.62607e+6 1.33584e+6 1.63105e+6 1.33451e+6 1.59231e+6 1.34071e+6 1.53432e+6 1.34779e+6 1.42630e+6 1.35311e+6 1.30234e+6 1.33982e+6 1.18547e+6 1.30795e+6 1.17130e+6 1.30087e+6 1.11286e+6 1.31680e+6 1.09692e+6 1.32212e+6 1.12880e+6 1.28316e+6 1.09869e+6 1.22738e+6 1.10047e+6 1.23534e+6" transform="matrix(-0.976331 -0.21628 0.21628 -0.976331 2.19725e+6 2.73888e+6)"/><polyline style="stroke:lightgray;fill:lightgray;stroke-width:1px;" id="e21_polyline" points="1.64316e+6 1.60936e+6 1.72461e+6 1.63415e+6 2.14961e+6 1.63592e+6 2.20451e+6 1.64389e+6 2.24081e+6 1.66071e+6 2.20628e+6 1.67488e+6 2.24117e+6 1.67499e+6 2.23533e+6 1.68838e+6 2.17230e+6 1.71162e+6 2.17728e+6 1.71029e+6 2.13854e+6 1.71649e+6 2.08055e+6 1.72357e+6 1.97253e+6 1.72889e+6 1.84857e+6 1.71561e+6 1.73169e+6 1.68373e+6 1.71753e+6 1.67665e+6 1.65909e+6 1.69258e+6 1.64316e+6 1.69790e+6 1.67503e+6 1.65894e+6 1.64492e+6 1.60316e+6 1.64669e+6 1.61113e+6" transform="matrix(0.913166 -0.407587 0.407587 0.913166 -510405 936269)"/><polyline style="stroke:lightgray;fill:lightgray;stroke-width:1px;" id="e1_polyline" points="731580 1.52185e+6 813040 1.54664e+6 1.23804e+6 1.54841e+6 1.29294e+6 1.55638e+6 1.32924e+6 1.57320e+6 1.29471e+6 1.58737e+6 1.32960e+6 1.58748e+6 1.32376e+6 1.60087e+6 1.26073e+6 1.62411e+6 1.26571e+6 1.62278e+6 1.22697e+6 1.62898e+6 1.16898e+6 1.63606e+6 1.06096e+6 1.64138e+6 937001 1.62810e+6 820121 1.59622e+6 805960 1.58914e+6 747520 1.60507e+6 731580 1.61039e+6 763460 1.57143e+6 733350 1.51565e+6 735120 1.52362e+6" transform="matrix(0.508585 -0.838656 0.838656 0.508585 -878541 1.88675e+6)"/><polyline style="stroke:lightgray;fill:lightgray;stroke-width:1px;" id="e2_polyline" points="2.34646e+6 1.74315e+6 2.42792e+6 1.76794e+6 2.85292e+6 1.76971e+6 2.90782e+6 1.77768e+6 2.94412e+6 1.79450e+6 2.90959e+6 1.80867e+6 2.94448e+6 1.80878e+6 2.93864e+6 1.82217e+6 2.87561e+6 1.84541e+6 2.88059e+6 1.84408e+6 2.84185e+6 1.85028e+6 2.78386e+6 1.85736e+6 2.67584e+6 1.86268e+6 2.55188e+6 1.84940e+6 2.43500e+6 1.81752e+6 2.42084e+6 1.81044e+6 2.36240e+6 1.82637e+6 2.34646e+6 1.83169e+6 2.37834e+6 1.79273e+6 2.34823e+6 1.73695e+6 2.35000e+6 1.74492e+6" transform="matrix(-0.269793 -0.962918 0.962918 -0.269793 1.63824e+6 4.50064e+6)"/><polyline style="stroke:lightgray;fill:lightgray;stroke-width:1px;" id="e3_polyline" points="2.08940e+6 2.17602e+6 2.17086e+6 2.20081e+6 2.59586e+6 2.20258e+6 2.65076e+6 2.21055e+6 2.68706e+6 2.22737e+6 2.65253e+6 2.24154e+6 2.68742e+6 2.24165e+6 2.68158e+6 2.25504e+6 2.61855e+6 2.27828e+6 2.62353e+6 2.27695e+6 2.58479e+6 2.28315e+6 2.52680e+6 2.29023e+6 2.41878e+6 2.29555e+6 2.29482e+6 2.28227e+6 2.17794e+6 2.25039e+6 2.16378e+6 2.24331e+6 2.10534e+6 2.25924e+6 2.08940e+6 2.26456e+6 2.12128e+6 2.22560e+6 2.09117e+6 2.16982e+6 2.09294e+6 2.17779e+6" transform="matrix(0.99276 0.120111 -0.120111 0.99276 285462 -270712)"/><polyline style="stroke:lightgray;fill:lightgray;stroke-width:1px;" id="e4_polyline" points="1.26295e+6 1.99117e+6 1.34441e+6 2.01596e+6 1.76941e+6 2.01773e+6 1.82431e+6 2.02570e+6 1.86061e+6 2.04252e+6 1.82608e+6 2.05669e+6 1.86097e+6 2.05680e+6 1.85513e+6 2.07019e+6 1.79210e+6 2.09343e+6 1.79708e+6 2.09210e+6 1.75834e+6 2.09830e+6 1.70035e+6 2.10538e+6 1.59233e+6 2.11070e+6 1.46837e+6 2.09742e+6 1.35149e+6 2.06554e+6 1.33733e+6 2.05846e+6 1.27889e+6 2.07439e+6 1.26295e+6 2.07971e+6 1.29483e+6 2.04075e+6 1.26472e+6 1.98497e+6 1.26649e+6 1.99294e+6" transform="matrix(-0.840767 -0.541398 0.541398 -0.840767 1.76421e+6 5.04091e+6)"/><polyline style="stroke:lightgray;fill:lightgray;stroke-width:1px;" id="e5_polyline" points="1.62104e+6 864079 1.70250e+6 888869 2.12750e+6 890639 2.18240e+6 898609 2.21870e+6 915429 2.18417e+6 929599 2.21906e+6 929709 2.21322e+6 943099 2.15019e+6 966339 2.15517e+6 965009 2.11643e+6 971209 2.05844e+6 978289 1.95042e+6 983609 1.82646e+6 970329 1.70958e+6 938449 1.69542e+6 931369 1.63698e+6 947299 1.62104e+6 952619 1.65292e+6 913659 1.62281e+6 857879 1.62458e+6 865849" transform="matrix(0.80915 0.587602 -0.587602 0.80915 865834 -1.06430e+6)"/></svg>