<svg xmlns="http://www.w3.org/2000/svg" xmlns:xlink="http://www.w3.org/1999/xlink" xml:space="preserve" width="34mm" height="34mm" version="1.1" style="shape-rendering:geometricPrecision; text-rendering:geometricPrecision; image-rendering:optimizeQuality; fill-rule:evenodd; clip-rule:evenodd" viewBox="0 0 3400000 3400000" ><rect id="svgEditorBackground" x="0" y="0" width="3400000" height="3400000" style="fill: none; stroke: none;"/>
 <defs>
  <style type="text/css">
   <![CDATA[
    .str0 {stroke:#78B23F;stroke-width:7620;stroke-miterlimit:22.9256}
    .fil0 {fill:#78B23F}
   ]]>
  </style>
 </defs>
 <g id="Слой_x0020_1">
  <metadata id="CorelCorpID_0Corel-Layer"/>
  <g id="_2540777611776">
   
   
   
   
   
   
   <path class="fil0 str0" d="M682340 1431690c35440,87590 135170,129880 222760,94450 87590,-35440 129870,-135170 94440,-222760l-27110 10970c29370,72620 -5680,155300 -78300,184670 -72620,29370 -155300,-5680 -184670,-78300l-27120 10970z"/>
  </g>
 </g>
<circle id="e1_circle" cx="1381249.666666667" cy="849999.7708333335" style="fill:gold;stroke:gold;stroke-width:1px;" r="245690"/><circle id="e2_circle" cx="878333.2708333335" cy="1367083.4583333335" style="fill:gold;stroke:gold;stroke-width:1px;" r="205416.896552"/><circle id="e3_circle" cx="2280833.916666667" cy="927915.7500000002" style="fill:gold;stroke:gold;stroke-width:1px;" r="190457"/><circle id="e4_circle" cx="2578332.0000000005" cy="1572500.2916666667" style="fill:gold;stroke:gold;stroke-width:1px;" r="215667"/><circle id="e5_circle" cx="1614999.0000000005" cy="1742500.7500000002" style="fill:gold;stroke:gold;stroke-width:1px;" r="205415"/><circle id="e6_circle" cx="934999.7083333335" cy="2174583.416666667" style="fill:gold;stroke:gold;stroke-width:1px;" r="172187"/><circle id="e7_circle" cx="1622082.5000000005" cy="2528748.333333334" style="fill:gold;stroke:gold;stroke-width:1px;" r="189663"/><circle id="e8_circle" cx="2436664.7500000005" cy="2337499.5" style="fill:gold;stroke:gold;stroke-width:1px;" r="180998"/></svg>