<?xml version="1.0" standalone="no"?>
<!DOCTYPE svg PUBLIC "-//W3C//DTD SVG 20010904//EN"
 "http://www.w3.org/TR/2001/REC-SVG-20010904/DTD/svg10.dtd">
<svg version="1.0" xmlns="http://www.w3.org/2000/svg"
 width="512.000000pt" height="512.000000pt" viewBox="0 0 512.000000 512.000000"
 preserveAspectRatio="xMidYMid meet">

<g transform="translate(0.000000,512.000000) scale(0.100000,-0.100000)"
fill="#000000" stroke="none">
<path d="M2134 4386 c-552 -208 -968 -469 -1339 -841 -178 -177 -282 -305
-418 -510 -111 -169 -265 -472 -322 -635 -20 -58 -41 -113 -46 -122 -23 -45 1
-229 40 -305 23 -47 84 -104 142 -133 94 -48 118 -50 1016 -50 l842 0 3 -343
3 -342 33 -67 c91 -186 319 -250 515 -145 71 37 119 92 149 166 20 51 22 77
26 309 2 139 7 252 10 250 132 -70 143 -73 257 -73 103 0 114 2 178 32 l67 32
0 -52 c0 -217 149 -373 355 -370 151 2 260 79 317 224 17 44 22 83 26 217 l5
162 510 0 c351 0 521 4 547 11 34 10 40 17 50 58 7 25 14 89 17 141 5 85 3 98
-15 120 -11 14 -541 414 -1178 889 l-1159 865 0 85 c-1 148 -60 274 -179 378
-77 68 -147 98 -236 100 -69 2 -87 -2 -216 -51z m1373 -1358 c1100 -819 1205
-899 1201 -903 -2 -2 -196 5 -432 15 -477 21 -467 22 -506 -43 -19 -30 -20
-52 -20 -312 0 -172 -4 -295 -11 -320 -15 -51 -64 -100 -112 -109 -56 -10
-120 21 -146 73 -19 37 -21 58 -21 237 l0 196 -34 34 c-46 46 -71 44 -115 -8
-109 -128 -197 -188 -276 -188 -48 0 -131 37 -165 74 -14 15 -52 67 -85 114
-44 63 -67 88 -85 90 -38 6 -97 -16 -119 -45 -20 -25 -21 -38 -21 -412 0 -359
-2 -389 -20 -428 -26 -57 -69 -83 -141 -83 -70 0 -115 27 -146 90 -23 44 -23
47 -23 507 0 317 -3 470 -11 486 -6 14 -22 30 -36 36 -17 8 -204 11 -618 11
-327 0 -595 1 -595 3 0 24 74 184 125 272 275 474 722 887 1249 1152 102 51
257 122 268 123 4 0 407 -298 895 -662z"/>
<path d="M2451 3451 c-71 -25 -102 -49 -129 -102 -40 -79 -5 -146 105 -201 63
-31 75 -33 168 -33 94 0 105 2 168 33 73 36 127 95 127 139 0 60 -65 129 -155
162 -73 28 -207 28 -284 2z"/>
<path d="M2752 2962 c-62 -23 -90 -45 -109 -90 -17 -40 -10 -67 26 -105 52
-57 96 -72 206 -72 109 0 154 15 205 70 30 32 34 97 8 137 -45 68 -223 100
-336 60z"/>
<path d="M1855 2900 c-195 -31 -338 -138 -352 -265 -22 -192 266 -346 572
-306 222 30 376 147 375 285 -1 118 -117 224 -295 271 -75 20 -221 27 -300 15z"/>
<path d="M3388 2744 c-204 -49 -287 -203 -171 -316 192 -187 673 -109 673 109
0 55 -11 82 -51 122 -87 87 -289 125 -451 85z"/>
</g>
</svg>
