<svg xmlns="http://www.w3.org/2000/svg" xmlns:xlink="http://www.w3.org/1999/xlink" xml:space="preserve" width="34mm" height="34mm" version="1.1" style="shape-rendering:geometricPrecision; text-rendering:geometricPrecision; image-rendering:optimizeQuality; fill-rule:evenodd; clip-rule:evenodd" viewBox="0 0 3400000 3400000" ><rect id="svgEditorBackground" x="0" y="0" width="3400000" height="3400000" style="fill: none; stroke: none;"/><defs id="svgEditorDefs"><path id="svgEditorClosePathDefs" style="stroke:black;stroke-width:1px;fill:rosybrown;"/></defs>
 <defs>
  <style type="text/css">
   <![CDATA[
    .str0 {stroke:#78B23F;stroke-width:7620;stroke-miterlimit:22.9256}
    .fil0 {fill:#78B23F}
   ]]>
  </style>
 </defs>
 <g id="Слой_x0020_1">
  <metadata id="CorelCorpID_0Corel-Layer"/>
  
 </g>
<line id="e1_line" x1="1622083" y1="1168750" x2="1870000" y2="1416667" style="stroke:forestgreen;fill:none;stroke-width:2px;"/><ellipse id="e5_ellipse" cx="2383428.9195632488" cy="1336601.6343815855" style="fill:green;stroke:green;stroke-width:1px;" rx="14027.1" ry="134157" transform="matrix(0.940709 -0.254983 0.254983 0.940709 -242905 699478)"/><ellipse id="e2_ellipse" cx="1342912.877723249" cy="1300944.032647589" style="fill:green;stroke:green;stroke-width:1px;" rx="14027.1" ry="134157" transform="matrix(0.791668 -0.610952 0.610952 0.791668 -823866 1.24256e+6)"/><ellipse id="e1_ellipse" cx="801455.7295771232" cy="1646298.7802982097" style="fill:green;stroke:green;stroke-width:1px;" rx="14027.1" ry="134157" transform="matrix(-0.296063 -0.955168 0.955168 -0.296063 -442065 3.53327e+6)"/><ellipse id="e3_ellipse" cx="1402897.999688834" cy="1808832.829443963" style="fill:green;stroke:green;stroke-width:1px;" rx="14027.1" ry="134157" transform="matrix(0.869633 0.493699 -0.493699 0.869633 1.11230e+6 -467388)"/><ellipse id="e6_ellipse" cx="2097127.997276685" cy="1534320.467352313" style="fill:green;stroke:green;stroke-width:1px;" rx="14027.1" ry="134157" transform="matrix(0.652057 -0.75817 0.75817 0.652057 -919987 1.57939e+6)"/><ellipse id="e7_ellipse" cx="2325195.0324642025" cy="2122623.220285317" style="fill:green;stroke:green;stroke-width:1px;" rx="14027.1" ry="134157" transform="matrix(0.656732 0.754124 -0.754124 0.656732 1.85515e+6 -1.71887e+6)"/><ellipse id="e8_ellipse" cx="1260731.525706768" cy="2520350.1323715225" style="fill:green;stroke:green;stroke-width:1px;" rx="14027.1" ry="134157" transform="matrix(-0.987118 0.159997 -0.159997 -0.987118 3.42992e+6 4.50768e+6)"/><ellipse id="e10_ellipse" cx="1748480.3423523125" cy="2473296.2527233157" style="fill:green;stroke:green;stroke-width:1px;" rx="14027.1" ry="134157" transform="matrix(0.652057 -0.75817 0.75817 0.652057 -919987 1.57939e+6)"/><ellipse id="e11_ellipse" cx="2704934.3281845413" cy="2531360.535124174" style="fill:green;stroke:green;stroke-width:1px;" rx="14027.1" ry="134157" transform="matrix(0.580037 -0.81459 0.81459 0.580037 -1.25192e+6 1.60554e+6)"/><ellipse id="e14_ellipse" cx="1922752.625" cy="1453085.1250000005" style="fill:green;stroke:green;stroke-width:1px;" rx="14027.1" ry="134157" transform="matrix(0.986995 -0.160752 0.160752 0.986995 -1.08432e+6 -242974)"/><ellipse id="e15_ellipse" cx="2584128.196416022" cy="1246913.9539982306" style="fill:green;stroke:green;stroke-width:1px;" rx="14027.1" ry="134157" transform="matrix(0.233772 -0.972292 0.972292 0.233772 -149814 2.79335e+6)"/><ellipse id="e16_ellipse" cx="600209.9336730619" cy="1316385.972979103" style="fill:green;stroke:green;stroke-width:1px;" rx="14027.1" ry="134157" transform="matrix(0.75722 -0.65316 0.65316 0.75722 -43892.4 1.91274e+6)"/><ellipse id="e17_ellipse" cx="613221.09271997" cy="467385.0288433952" style="fill:green;stroke:green;stroke-width:1px;" rx="14027.1" ry="134157" transform="matrix(0.996798 -0.0799677 0.0799677 0.996798 77095.1 1.44927e+6)"/><ellipse id="e18_ellipse" cx="548663.980234355" cy="-254313.24540587678" style="fill:green;stroke:green;stroke-width:1px;" rx="14027.1" ry="134157" transform="matrix(0.954253 0.299002 -0.299002 0.954253 4060.93 1.23052e+6)"/><ellipse id="e12_ellipse" cx="2047039.3307578377" cy="3035172.708642642" style="fill:green;stroke:green;stroke-width:1px;" rx="14027.1" ry="134157" transform="matrix(0.702164 -0.712015 0.712015 0.702164 -843963 912164)"/><ellipse id="e13_ellipse" cx="924735.9144004788" cy="2412849.8778848043" style="fill:green;stroke:green;stroke-width:1px;" rx="14027.1" ry="134157" transform="matrix(0.614098 -0.789229 0.789229 0.614098 -474448 1.87035e+6)"/><ellipse id="e19_ellipse" cx="1430816.6278848033" cy="2920650.460599521" style="fill:green;stroke:green;stroke-width:1px;" rx="14027.1" ry="134157" transform="matrix(-0.620214 -0.784432 0.784432 -0.620214 1.16075e+6 5.11689e+6)"/></svg>